<?xml version="1.0" standalone="no"?>
<!DOCTYPE svg PUBLIC "-//W3C//DTD SVG 1.1//EN" "http://www.w3.org/Graphics/SVG/1.1/DTD/svg11.dtd" >
<svg xmlns="http://www.w3.org/2000/svg">
<metadata>Generated by IcoMoon</metadata>
<defs>
<font id="ver" horiz-adv-x="1024">
<font-face units-per-em="1024" ascent="960" descent="-64" />
<missing-glyph horiz-adv-x="1024" />
<glyph unicode="&#x20;" horiz-adv-x="512" d="" />
<glyph unicode="&#xe900;" d="M462.445 365.419c0 127.705-103.525 231.231-231.231 231.231s-231.231-103.525-231.231-231.231c0-127.705 103.525-231.231 231.231-231.231v0c127.648 0.141 231.089 103.583 231.231 231.217v0.013z" />
<glyph unicode="&#xe901;" d="M247.744 200.256v33.854c37.359 4.16 66.146 35.562 66.146 73.688 0 40.934-33.184 74.118-74.118 74.118-0.109 0-0.217 0-0.326-0.001h-16.546c-22.804 0-41.291 18.486-41.291 41.291s18.486 41.291 41.291 41.291h16.563c22.778-0.066 41.225-18.513 41.291-41.284v-8.287h33.026v8.281c-0.126 38.005-28.823 69.269-65.73 73.441l-0.339 0.031v33.904h-32.993v-33.871c-37.359-4.16-66.146-35.562-66.146-73.688 0-40.934 33.184-74.118 74.118-74.118 0.109 0 0.217 0 0.326 0.001h16.546c22.804 0 41.291-18.486 41.291-41.291s-18.486-41.291-41.291-41.291h-16.563c-22.778 0.066-41.225 18.513-41.291 41.284v8.287h-33.059v-8.281c0.126-38.005 28.823-69.269 65.73-73.441l0.339-0.031v-33.871z" />
<glyph unicode="&#xe902;" d="M247.727 827.863h528.447v-33.026h33.125v82.581c-0.057 45.591-37.005 82.534-82.593 82.581h-429.423c-45.586-0.056-82.525-36.996-82.581-82.576v-247.749h33.026zM247.727 877.419c0.075 27.338 22.217 49.48 49.548 49.555h429.426c27.303-0.122 49.398-22.246 49.473-49.548v-16.57h-528.513z" />
<glyph unicode="&#xe903;" d="M214.701 18.581c0.056-45.586 36.996-82.525 82.576-82.581h429.424c45.586 0.056 82.525 36.996 82.581 82.576v82.586h-594.581zM247.727 68.137h528.447v-49.555c-0.075-27.338-22.217-49.48-49.548-49.555h-429.343c-27.338 0.075-49.48 22.217-49.555 49.548v0.007z" />
<glyph unicode="&#xe904;" d="M447.191 32.494h132.501v-33.125h-132.501v33.125z" />
<glyph unicode="&#xe905;" d="M974.428 761.812h-528.513c-27.324-0.094-49.447-22.229-49.522-49.548v-148.656h594.598v-181.675c0-9.147-7.415-16.563-16.563-16.563v0h-478.941v-33.026h478.941c27.338 0.075 49.48 22.217 49.555 49.548v330.365c-0.075 27.338-22.217 49.48-49.548 49.555h-0.007zM990.991 596.649h-561.473v66.068h561.473z" />
<glyph unicode="&#xe906;" d="M842.308 421.268c12.182-14.019 30.040-22.832 49.956-22.832 36.488 0 66.068 29.58 66.068 66.068s-29.58 66.068-66.068 66.068c-19.916 0-37.774-8.812-49.887-22.751l-0.069-0.081c-12.182 14.019-30.040 22.832-49.956 22.832-36.488 0-66.068-29.58-66.068-66.068s29.58-66.068 66.068-66.068c19.916 0 37.774 8.812 49.887 22.751l0.069 0.081zM891.863 497.539c18.24 0 33.026-14.786 33.026-33.026s-14.786-33.026-33.026-33.026c-18.24 0-33.026 14.786-33.026 33.026v0c0.047 18.224 14.803 32.986 33.020 33.042h0.005zM759.727 464.513c0 18.24 14.786 33.026 33.026 33.026s33.026-14.786 33.026-33.026c0-18.24-14.786-33.026-33.026-33.026v0c-18.217 0.056-32.97 14.809-33.026 33.020v0.005z" />
<glyph unicode="&#xe907;" d="M778.443 297.496h33.125v-165.626h-33.125v165.626z" />
<glyph unicode="&#xe908;" d="M496.878 297.496h33.125v-33.125h-33.125v33.125z" />
<glyph unicode="&#xe909;" d="M563.129 297.496h33.125v-33.125h-33.125v33.125z" />
<glyph unicode="&#xe90a;" d="M629.379 297.496h33.125v-33.125h-33.125v33.125z" />
<glyph unicode="&#xe90b;" glyph-name="dashboard" horiz-adv-x="2087" d="M1981.37 379.616c-6.283 12.547-19.041 21.011-33.775 21.011-6.932 0-13.427-1.873-19.005-5.141l0.178 0.096-290.884-167.775c-11.366-6.669-18.876-18.829-18.876-32.743 0-5.659 1.242-11.028 3.469-15.849l-0.097 0.234c26.504-56.48 45.322-122.037 52.992-190.96l0.257-2.84c2.154-18.954 18.040-33.561 37.363-33.684l336.116-1.661c20.864 0.111 37.734 17.050 37.734 37.929 0 0.877-0.030 1.747-0.088 2.609l0.006-0.117c-10.164 143.346-47.969 275.683-108.105 394.825l2.715-5.934zM1908.003 504.94c-77.657 113.105-173.393 207.577-284.037 281.481l-3.801 2.39c-5.866 3.955-13.093 6.313-20.87 6.313-14.028 0-26.264-7.671-32.742-19.048l-0.097-0.186-165.376-292.36c-3.165-5.396-5.034-11.883-5.034-18.807 0-12.651 6.239-23.845 15.809-30.672l0.115-0.078c55.378-39.788 102.675-86.322 142.018-139.131l1.209-1.697c6.97-9.315 17.965-15.288 30.357-15.319h0.005c6.809 0.071 13.166 1.947 18.632 5.171l-0.175-0.095 291.253 167.775c8.979 5.255 15.498 13.887 17.854 24.11l0.049 0.254c0.743 2.767 1.17 5.943 1.17 9.219 0 7.719-2.369 14.884-6.419 20.808l0.082-0.127zM1513.482 837.906c-3.275 10.079-10.366 18.132-19.525 22.603l-0.224 0.099c-112.214 54.892-243.181 90.624-381.496 99.244l-2.965 0.148c-0.678 0.043-1.47 0.068-2.267 0.068-10.047 0-19.185-3.887-25.994-10.24l0.022 0.021c-7.336-6.902-11.905-16.674-11.905-27.513 0-0.061 0-0.121 0-0.182v0.009-335.735c0.061-19.563 14.995-35.619 34.085-37.456l0.153-0.012c71.149-6.833 136.517-24.407 196.918-51.155l-4.041 1.597c4.439-1.989 9.62-3.148 15.072-3.148 14.017 0 26.245 7.659 32.727 19.021l0.097 0.185 165.468 292.36c3.389 5.558 5.395 12.28 5.395 19.472 0 3.782-0.555 7.435-1.588 10.881l0.069-0.268zM992.438 949.018c-6.752 6.239-15.815 10.066-25.771 10.066-0.966 0-1.924-0.036-2.872-0.107l0.126 0.008c-141.521-10.786-271.965-48.354-389.582-107.648l5.951 2.719c-12.552-6.308-21.015-19.083-21.015-33.835 0-6.944 1.875-13.449 5.146-19.039l-0.096 0.178 167.867-290.792c6.618-11.392 18.762-18.929 32.667-18.929 5.69 0 11.086 1.262 15.922 3.522l-0.231-0.097c55.486 25.922 119.873 44.513 187.524 52.414l2.953 0.281c18.931 2.162 33.5 18.091 33.5 37.423 0 0.016 0 0.032 0 0.048v-0.002 336.104c0 0.036 0 0.079 0 0.121 0 10.89-4.646 20.695-12.064 27.541l-0.026 0.023zM446.108 221.716l-291.899 166.114c-5.384 3.158-11.857 5.023-18.765 5.023-14.89 0-27.756-8.664-33.832-21.226l-0.098-0.224c-55.075-110.88-91.458-240.292-101.32-377.050l-0.194-3.35c-0.061-0.801-0.095-1.735-0.095-2.676 0-20.846 16.899-37.745 37.745-37.745 0.001 0 0.002 0 0.003 0h335.827c19.442 0.031 35.443 14.72 37.545 33.606l0.015 0.171c7.538 70.219 25.482 134.459 52.361 193.788l-1.604-3.957c1.939 4.394 3.068 9.518 3.068 14.906 0 13.85-7.46 25.958-18.581 32.525l-0.176 0.096zM681.067 483.53l-10.982 19.38-261.445 247.879c-20.487-15.412-40.329-31.469-59.524-48.358l262.183-315.524c17.663 16.007 36.827 31.451 56.859 45.758l1.927 1.308c9.706 6.922 15.959 18.142 15.959 30.823 0 6.893-1.847 13.354-5.074 18.915l0.097-0.181zM321.246 676.96c-54.516-51.189-103.105-107.513-145.379-168.545l-2.277-3.476c-4.108-5.954-6.562-13.324-6.562-21.267 0-13.92 7.535-26.080 18.749-32.623l0.179-0.097 291.622-167.775c5.295-3.117 11.648-4.992 18.433-5.075h0.024c12.424 0.031 23.447 6.002 30.384 15.222l0.070 0.098c18.498 24.595 37.37 46.363 57.622 66.759l-0.036-0.036zM606.593 615.037l-90.994 160.392c-5.073 9.128-13.581 15.827-23.734 18.401l-0.26 0.056c-2.61 0.638-5.607 1.004-8.689 1.004-7.792 0-15.038-2.338-21.075-6.352l0.14 0.088c-7.567-4.983-14.858-10.336-22.241-15.504zM340.626 815.296l-48.819-43.836 693.987-835.83c140.735-2.215 139.536 135.106 139.536 135.106z" />
<glyph unicode="&#xe90c;" glyph-name="get-money-back" horiz-adv-x="905" d="M514 696.722c128.177 0 232.104 40.968 232.104 91.478s-103.926 91.478-232.104 91.478-232.104-40.968-232.104-91.478 103.926-91.478 232.104-91.478zM514 960c-215.458 0-390.738-77.631-390.738-173.019v-97.936c0-95.424 175.297-173.055 390.738-173.055s390.738 77.631 390.738 173.055v97.936c0 95.406-175.279 173.019-390.738 173.019zM514 667.79c-168.786 0-305.591 53.9-305.591 120.393s136.805 120.41 305.591 120.41 305.609-53.9 305.609-120.41-136.823-120.393-305.609-120.393zM746.104 164.911l-301.824 199.53v-116.446c-126.437-9.435-344.389 31.174-402.145 252.372h-42.206c0-354.523 251.511-446.414 444.387-440.315v-124.070zM139.585 562.464h-16.323v-57.398c0-74.492 107.030-137.935 256.498-162.293v105.666c-115.567 18.923-205.378 61.29-240.175 114.025zM888.379 562.464c-47.371-71.873-196.947-124.644-374.379-124.644-22.995 0-45.434 0.933-67.317 2.619l156.661-103.586c172.481 17.937 301.34 86.528 301.34 168.302v57.398z" />
<glyph unicode="&#xe90d;" glyph-name="VER-operating-area" horiz-adv-x="1205" d="M387.81-38.137c-13.374 6.63-0.872 13.16-2.629 20.847l-17.918 7.373-6.616 34.050c-6.181-2.115-13.302-3.336-20.708-3.336-17.471 0-33.355 6.794-45.155 17.885l0.034-0.032c0.557 6.901 1.115 14.089 1.829 22.862-9.045 7.001-18.833 13.76-27.577 21.676-5.605 4.241-9.87 9.981-12.225 16.625l-0.077 0.25c-1.863 12.192-10.131 22.081-21.204 26.23l-0.229 0.075c-6.616 2.858-12.688 7.044-20.604 11.517l-29.292-27.406c-13.76 5.956-24.112 17.563-28.247 31.813l-0.087 0.351-58.284-22.162-8.716 44.166 8.287 13.831-6.959 16.232 108.808 134.471 32.378-3.987q0.557 2.1 1.115 4.215l-28.463 10.802q-1.1 17.789-2.3 36.951l-12.631 5.715c-0.648 1.742-1.113 3.764-1.308 5.864l-0.007 0.094c1.014 20.561 1.786 41.137 3.386 61.656 0.329 3.968 0.517 8.588 0.517 13.253 0 42.924-15.896 82.136-42.122 112.069l0.168-0.195c-15.575 18.961-30.392 38.58-45.852 58.226l14.289 45.938-61.441 24.805v54.569l-49.868 15.875 21.662 51.439-29.721 40.951c25.72 17.018 60.841 16.575 76.387 48.153l75.387-29.063v31.435l-37.151 30.635 28.792 11.331 39.665-42.523 50.325 3.015c6.101-23.705 26.877-28.006 46.553-34.093 14.532-4.501 28.949-9.416 44.295-14.46l7.144-23.333c6.030 0 11.802-0.3 17.532 0q18.875 1.2 37.694 2.972c2.032 0.381 4.37 0.599 6.759 0.599 10.887 0 20.716-4.528 27.707-11.803l0.012-0.013c4.862-4.778 11.534-7.728 18.895-7.728 2.374 0 4.676 0.307 6.87 0.883l-0.188-0.042c15.718 1.972 31.707 1.9 49.439 2.858 8.102-20.99 26.12-21.133 44.624-21.233 10.459 0 20.919-1.943 31.807-3.043l11.174-33.393c19.847-6.073 40.58-12.731 61.541-18.575 1.122-0.206 2.412-0.324 3.73-0.324 3.503 0 6.812 0.832 9.74 2.31l-0.124-0.057c11.431 5.13 22.548 11.088 34.45 17.061 0.914 11.574 1.772 22.59 2.743 34.907l25.991-6.13 11.602 33.736h26.748c4.997-5.465 10.501-10.316 16.485-14.533l0.319-0.213c5.855-4.262 13.189-6.818 21.12-6.818 10.156 0 19.333 4.191 25.896 10.939l0.008 0.008c13.458 11.726 28.217 23.351 43.538 34.237l1.757 1.185c20.076-7.144 40.894-13.66 60.956-21.99 11.702-4.858 13.303-17.447 15.375-28.577 1.929-10.331 3.072-20.79 4.515-30.892l25.72-11.045-11.688-28.177c37.436-27.792 79.488-47.496 112.881-79.688v-25.248l-24.162-22.233 27.020-22.105 23.576 6.316 13.774-12.060 58.455 7.759c13.531-11.431 7.273-35.593 29.249-41.251v-26.706l-22.376-19.433c2.229-10.002 4.472-20.161 7.044-31.721-4.835-2.404-10.469-4.437-16.356-5.811l-0.533-0.105c-13.715-1.337-24.912-10.788-28.801-23.44l-0.063-0.237c-6.13-14.66-14.060-28.577-21.633-43.638l16.032-27.349 37.608-6.83c5.795-15.086 9.152-32.539 9.152-50.776 0-15.675-2.48-30.77-7.069-44.916l0.289 1.029c-2.254-6.26-6.222-11.445-11.338-15.139l-0.093-0.064c-18.879-13.597-34.594-30.273-46.724-49.442l-0.429-0.725c-11.697-13.105-24.801-24.562-39.184-34.266l-0.739-0.47-22.776 12.703-8.659 22.005-68.057-10.516c-3.129-12.079-4.925-25.947-4.925-40.233 0-8.192 0.591-16.245 1.731-24.121l-0.107 0.898c0.388-3.806 0.609-8.224 0.609-12.693 0-8.352-0.773-16.524-2.251-24.448l0.127 0.819c-3.549-4.416-8.949-7.218-15.005-7.218-4.994 0-9.543 1.906-12.959 5.031l0.015-0.013c-23.348 13.203-44.581 4.429-66.557-2.858 0.234-3.428 0.368-7.429 0.368-11.461 0-5.987-0.295-11.905-0.87-17.741l0.059 0.739c-0.772-4.544-6.044-8.316-10.159-13.546l-41.237 28.577c-20.247-7.802-41.437-15.332-61.942-24.291-4.681-3.401-8.129-8.249-9.702-13.88l-0.043-0.18c-5.215-13.546-9.445-27.463-14.832-43.509l-32.35 12.174-20.933-16.761-34.293 17.146-20.919-10.345c-0.372-8.23-0.7-15.489-1.229-27.149l-18.218 21.776-29.349-5.487c-0.872-4.458-1.843-9.402-2.858-14.36l-2.072 1.429-27.763-43.509c-15.532 2.858-32.864-1.429-48.081 11.045-4.63 3.772-15.203 1-22.862 0.114-13.36-1.529-26.677-4.158-37.151 9.816v20.819l-26.034 6.859z" />
<glyph unicode="&#xe90e;" glyph-name="student" horiz-adv-x="405" d="M338.415 849.896c0-60.809-49.295-110.104-110.104-110.104s-110.104 49.295-110.104 110.104c0 60.809 49.295 110.104 110.104 110.104s110.104-49.295 110.104-110.104zM87.116 642.372v-136.254h-52.159v70.822c0.035 31.753 22.083 58.346 51.703 65.342l0.456 0.091zM332.092 425.888c-0.023-19.36-5.588-37.416-15.192-52.673l0.242 0.411 23.526-17.92c6.614-5.194 15.059-8.33 24.236-8.33 12.903 0 24.357 6.198 31.549 15.78l0.073 0.102c5.037 6.625 8.069 15.013 8.069 24.109 0 12.881-6.081 24.343-15.53 31.669l-0.091 0.068-56.882 43.34zM160.868 361.569l35.276 128.28c1.157 4.161 2.73 7.797 4.723 11.154l-0.115-0.21 67.238 114.815c3.728 6.265 5.931 13.814 5.931 21.878 0 15.851-8.514 29.713-21.219 37.263l-0.2 0.11c-6.268 3.734-13.822 5.941-21.892 5.941-15.853 0-29.716-8.519-37.262-21.229l-0.11-0.2-69.99-119.525c-3.769-6.312-6.927-13.604-9.099-21.309l-0.155-0.643-36.62-133.426c-1.044-3.525-1.645-7.574-1.645-11.765 0-19.77 13.38-36.415 31.578-41.375l0.301-0.070c3.402-0.955 7.309-1.505 11.344-1.505 19.868 0 36.627 13.314 41.841 31.508l0.075 0.307zM371.234 216.444l-83.378 146.085c17.727 15.475 28.864 38.112 28.864 63.351 0 0.003 0 0.006 0 0.009v0 210.519c0 46.487-37.685 84.172-84.172 84.172h-8.461c-46.487 0-84.172-37.685-84.172-84.172v0-37.696l40.063 68.428c10.367 17.49 29.146 29.031 50.621 29.031 10.933 0 21.168-2.992 29.93-8.201l-0.27 0.149c17.489-10.364 29.030-29.141 29.030-50.613 0-10.932-2.991-21.164-8.2-29.925l0.149 0.27-67.225-114.815c-1.25-2.087-2.298-4.497-3.020-7.045l-0.052-0.213-35.276-128.28c-0.666-2.189-1.318-3.951-2.056-5.668l0.136 0.356 99.724-174.731c2.761-4.745 4.391-10.443 4.391-16.521 0-0.042 0-0.083 0-0.125v0.006l-0.806-172.439c0-0.080-0.001-0.174-0.001-0.269 0-28.772 23.324-52.096 52.096-52.096 28.677 0 51.943 23.171 52.095 51.813v0.015l0.947 186.878c0.001 0.127 0.001 0.276 0.001 0.426 0 15.193-4.067 29.437-11.172 41.702l0.214-0.4zM147.672 321.902l-43.519-146.686c-1.138-3.787-2.645-7.085-4.531-10.123l0.103 0.178-91.98-149.912c-5.064-7.892-8.073-17.522-8.073-27.856 0-28.771 23.324-52.095 52.095-52.095 18.958 0 35.551 10.127 44.665 25.266l0.131 0.235 96.344 157.003c3.564 5.716 6.577 12.308 8.702 19.286l0.155 0.592 26.227 88.319-63.052 110.488c-4.74-5.929-10.471-10.839-16.977-14.542l-0.29-0.152zM99.186 521.964c2.721 9.736 6.408 18.239 11.074 26.092l-0.271-0.492 14.566 24.87v71.756h-22.31c-2.743-0.121-5.309-0.391-7.825-0.806l0.376 0.051v-137.355zM92.735 498.438h-57.778v-59.007c0-7.069 5.731-12.8 12.8-12.8v0h25.28z" />
<glyph unicode="&#xe90f;" d="M512 960c282.77 0 512-229.23 512-512s-229.23-512-512-512c-282.77 0-512 229.23-512 512s229.23 512 512 512z" />
<glyph unicode="&#xe910;" d="M266.24 437.76l46.551-46.551 176.128 176.128v-385.577h66.499v385.659l176.128-176.128 46.694 46.469-256 256z" />
<glyph unicode="&#xe911;" d="M1024 448c0-282.77-229.23-512-512-512s-512 229.23-512 512c0 282.77 229.23 512 512 512s512-229.23 512-512z" />
<glyph unicode="&#xe912;" d="M506.317 417.485l-162.918-162.944-36.198 36.224 162.918 162.918-162.918 162.918 36.198 36.198 162.918-162.918 162.918 162.918 36.224-36.198-162.944-162.918 162.918-162.918-36.224-36.224z" />
<glyph unicode="&#xe913;" glyph-name="line" horiz-adv-x="989" d="M98.921 714.11v-142.641h32.947v142.641c56.968 11.284 99.325 60.856 99.325 120.321 0 6.946-0.578 13.758-1.688 20.389l0.099-0.717c-6.002 59.448-55.782 105.461-116.31 105.461-5.066 0-10.058-0.322-14.954-0.948l0.581 0.061c-57-11.258-99.389-60.845-99.389-120.333 0-6.914 0.573-13.694 1.673-20.295l-0.099 0.716c5.98-52.962 45.755-95.119 96.997-104.638l0.739-0.114zM115.425 924.503c45.884-1.683 82.443-39.286 82.443-85.428 0-0.971-0.016-1.939-0.048-2.902l0.004 0.14c0.030-0.841 0.047-1.829 0.047-2.822 0-46.157-36.566-83.774-82.311-85.462l-0.154-0.005c-45.907 1.682-82.484 39.303-82.484 85.467 0 0.992 0.017 1.98 0.050 2.964l-0.004-0.143c-0.026 0.783-0.040 1.703-0.040 2.626 0 46.189 36.574 83.835 82.341 85.558l0.157 0.005zM65.954 853.924h32.947v35.299h-32.947zM906.658 324.333c0.024 0.678 0.038 1.475 0.038 2.275 0 36.927-29.268 67.017-65.871 68.34l-0.121 0.003c-36.707-1.347-65.953-31.429-65.953-68.342 0-0.801 0.014-1.598 0.041-2.392l-0.003 0.115c-0.024-0.673-0.037-1.463-0.037-2.257 0-36.912 29.245-66.994 65.829-68.338l0.123-0.004c36.724 1.327 65.991 31.417 65.991 68.343 0 0.793-0.014 1.583-0.040 2.37l0.003-0.114zM807.835 324.333c-0.014 0.361-0.021 0.785-0.021 1.211 0 18.43 14.573 33.456 32.824 34.185l0.066 0.002c18.379-0.669 33.024-15.73 33.024-34.211 0-0.383-0.006-0.764-0.019-1.144l0.001 0.055c0.013-0.354 0.021-0.77 0.021-1.187 0-18.482-14.647-33.543-32.967-34.209l-0.061-0.002c-18.36 0.68-32.985 15.727-32.985 34.19 0 0.39 0.007 0.779 0.019 1.165l-0.001-0.056zM886.874 124.613c40.754 52.396 102.183 141.138 102.183 199.622 0.054 1.521 0.085 3.308 0.085 5.102 0 83.035-65.757 150.712-148.037 153.797l-0.281 0.008c-82.658-2.976-148.536-70.701-148.536-153.813 0-1.791 0.031-3.576 0.091-5.352l-0.007 0.258c0-58.562 61.468-147.305 102.183-199.78-32.71-8.479-52.732-25.694-52.732-47.316 0-36.406 51.249-52.989 98.823-52.989s98.823 16.582 98.823 52.989c0 21.741-20.061 38.837-52.771 47.316zM840.724 447.921c64.262-2.447 115.43-55.133 115.43-119.77 0-1.377-0.023-2.749-0.069-4.115l0.005 0.199c0-52.435-74.69-153.827-115.366-203.14-40.715 49.49-115.405 150.784-115.405 203.14-0.041 1.167-0.064 2.538-0.064 3.914 0 64.651 51.19 117.346 115.249 119.765l0.22 0.007zM840.724 59.548c-2.793-0.288-6.034-0.452-9.314-0.452-21.085 0-40.587 6.778-56.445 18.275l0.28-0.193c12.072 9.672 27.412 15.727 44.142 16.322l0.131 0.004c4.249-5.040 7.471-8.815 9.111-10.614 2.918-3.407 7.224-5.552 12.031-5.552 4.411 0 8.401 1.807 11.269 4.72l0.002 0.002c0.257 0.296 0.494 0.553 0.791 0.83 1.64 1.976 4.921 5.633 9.072 10.614 16.903-0.571 32.288-6.631 44.54-16.441l-0.149 0.115c-15.584-11.323-35.098-18.114-56.199-18.114-3.254 0-6.471 0.162-9.643 0.477l0.401-0.032zM840.704 6.619c-12.314-0.215-22.939-7.235-28.296-17.451l-0.085-0.179h-647.486c-55.038 2.049-98.878 47.16-98.878 102.511 0 1.184 0.020 2.364 0.060 3.538l-0.005-0.171c-0.036 1.016-0.057 2.209-0.057 3.407 0 55.351 43.841 100.463 98.693 102.506l0.186 0.006h288.562c77.984 2.878 140.112 66.792 140.112 145.216 0 1.694-0.029 3.381-0.086 5.061l0.007-0.244c0.051 1.441 0.080 3.134 0.080 4.834 0 78.445-62.161 142.372-139.913 145.21l-0.259 0.007h-309.572c-5.321 10.524-16.051 17.613-28.436 17.613-6.144 0-11.881-1.745-16.742-4.766l0.135 0.078c-10.012-6.657-16.522-17.891-16.522-30.646 0-6.43 1.654-12.474 4.561-17.729l-0.096 0.189c5.321-10.524 16.051-17.613 28.436-17.613 6.144 0 11.881 1.745 16.742 4.766l-0.135-0.078c5.080 3.22 9.165 7.584 11.966 12.745l0.090 0.181h309.572c59.666-2.188 107.205-51.085 107.205-111.085 0-1.304-0.022-2.602-0.067-3.895l0.005 0.188c0.039-1.105 0.062-2.403 0.062-3.707 0-60-47.539-108.897-107.006-111.080l-0.199-0.006h-288.562c-73.395-2.717-131.863-62.872-131.863-136.682 0-1.574 0.027-3.142 0.079-4.703l-0.006 0.227c-0.047-1.339-0.074-2.913-0.074-4.493 0-73.839 58.513-134.011 131.7-136.678l0.243-0.007h647.486c5.334-10.516 16.066-17.597 28.453-17.597 6.137 0 11.868 1.738 16.727 4.749l-0.136-0.078c10.019 6.665 16.533 17.909 16.533 30.674 0 6.442-1.659 12.496-4.572 17.759l0.096-0.188c-5.502 10.485-16.276 17.537-28.705 17.63h-0.013z" />
<glyph unicode="&#xe914;" glyph-name="download" d="M432.068 960h160c0.013 0 0.029 0 0.045 0 26.448 0 47.887-21.44 47.887-47.887 0-0.040 0-0.079 0-0.119v0.006-336h175.392c0.008 0 0.017 0 0.027 0 22.048 0 39.921-17.873 39.921-39.921 0-11.053-4.492-21.057-11.75-28.286l-304.181-304.384c-7.002-6.95-16.648-11.246-27.297-11.246s-20.295 4.295-27.299 11.248l-304.606 304.381c-7.259 7.23-11.751 17.234-11.751 28.287 0 22.048 17.873 39.921 39.921 39.921 0.009 0 0.019 0 0.028 0h175.526v336c0 0.034 0 0.073 0 0.113 0 26.448 21.44 47.887 47.887 47.887 0.087 0 0.174 0 0.261-0.001h-0.013zM1023.91 208v-224c0-0.007 0-0.015 0-0.023 0-26.448-21.44-47.887-47.887-47.887-0.008 0-0.016 0-0.024 0h-927.999c-0.033 0-0.073 0-0.113 0-26.448 0-47.887 21.44-47.887 47.887 0 0.008 0 0.016 0 0.024v-0.001 224c0 0.033 0 0.073 0 0.113 0 26.448 21.44 47.887 47.887 47.887 0.040 0 0.079 0 0.119 0h293.395l98.003-98.003c18.558-18.624 44.232-30.148 72.596-30.148s54.038 11.524 72.593 30.145l98.006 98.006h293.401c0.007 0 0.015 0 0.023 0 26.448 0 47.887-21.44 47.887-47.887 0-0.040 0-0.079 0-0.119v0.006zM775.921 32c0 22.085-17.904 39.989-39.989 39.989s-39.989-17.904-39.989-39.989c0-22.085 17.904-39.989 39.989-39.989v0c22.083 0.038 39.98 17.911 40.056 39.981v0.007zM903.921 32c0 22.085-17.904 39.989-39.989 39.989s-39.989-17.904-39.989-39.989c0-22.085 17.904-39.989 39.989-39.989v0c22.083 0.038 39.98 17.911 40.056 39.981v0.007z" />
<glyph unicode="&#xe915;" glyph-name="call" d="M873.984 810.095c-92.654 92.654-220.654 149.962-362.040 149.962s-269.385-57.308-362.039-149.962v0c-92.654-92.654-149.962-220.654-149.962-362.040s57.308-269.385 149.962-362.039v0c92.654-92.654 220.654-149.962 362.040-149.962s269.385 57.308 362.039 149.962v0c92.707 92.624 150.071 220.611 150.127 361.995v0.011c-0.037 141.419-57.405 269.433-150.123 362.069l-0.004 0.004zM775.413 246.895v0 0.178l-25.956-25.778c-24.765-25.069-59.141-40.596-97.143-40.596-11.249 0-22.181 1.361-32.639 3.926l0.936-0.194c-50.076 13.633-93.929 33.856-133.434 60.103l1.672-1.045c-39.141 25.222-73.172 52.852-103.908 83.762l-0.028 0.028c-28.289 28.064-53.827 58.819-76.224 91.874l-1.377 2.155c-23.42 33.981-43.193 73.062-57.373 114.728l-0.995 3.365c-4.224 12.58-6.661 27.065-6.661 42.12 0 38.094 15.604 72.543 40.769 97.304l30.404 30.404c3.923 3.921 9.342 6.346 15.327 6.346s11.403-2.425 15.327-6.346l95.922-95.922c3.921-3.923 6.346-9.342 6.346-15.327s-2.425-11.403-6.346-15.327l-56.32-56.32c-8.417-8.324-13.629-19.874-13.629-32.641 0-10.186 3.318-19.597 8.931-27.211l-0.089 0.126c21.344-29.114 43.454-54.797 67.389-78.653l0.017-0.017c26.713-26.82 55.713-51.319 86.696-73.195l2.058-1.379c7.379-5.203 16.557-8.316 26.462-8.316 12.718 0 24.237 5.132 32.599 13.439l-0.003-0.003 54.45 55.296c3.923 3.921 9.342 6.346 15.327 6.346s11.403-2.425 15.327-6.346v0l96.078-96.256c3.974-3.932 6.435-9.386 6.435-15.415 0-5.985-2.425-11.404-6.346-15.327v0z" />
<glyph unicode="&#xe916;" horiz-adv-x="896" d="M636.321 453.011h159.080v-159.080h-159.080v159.080z" />
<glyph unicode="&#xe917;" horiz-adv-x="896" d="M0 32.005c0-53.022 42.983-96.005 96.005-96.005v0h703.93c53.022 0 96.005 42.983 96.005 96.005v0 544.015h-895.94zM639.98 424.019c0.112 13.134 10.729 23.75 23.851 23.862h80.028c13.134-0.112 23.75-10.729 23.862-23.851v-80.028c-0.112-13.134-10.729-23.75-23.851-23.862h-79.71c-13.134 0.112-23.75 10.729-23.862 23.851v0.011zM639.98 168.019c0.112 13.134 10.729 23.75 23.851 23.862h80.028c13.134-0.112 23.75-10.729 23.862-23.851v-80.028c-0.112-13.134-10.729-23.75-23.851-23.862h-79.71c-13.134 0.112-23.75 10.729-23.862 23.851v0.011zM383.98 424.019c0.112 13.134 10.729 23.75 23.851 23.862h80.148c13.134-0.112 23.75-10.729 23.862-23.851v-80.028c-0.112-13.134-10.729-23.75-23.851-23.862h-79.989c-13.134 0.112-23.75 10.729-23.862 23.851v0.011zM383.98 168.019c0.112 13.134 10.729 23.75 23.851 23.862h80.148c13.134-0.112 23.75-10.729 23.862-23.851v-80.028c-0.112-13.134-10.729-23.75-23.851-23.862h-79.989c-13.134 0.112-23.75 10.729-23.862 23.851v0.011zM127.98 424.019c0.112 13.134 10.729 23.75 23.851 23.862h80.148c13.134-0.112 23.75-10.729 23.862-23.851v-80.028c-0.112-13.134-10.729-23.75-23.851-23.862h-79.989c-13.134 0.112-23.75 10.729-23.862 23.851v0.011zM127.98 168.019c0.112 13.134 10.729 23.75 23.851 23.862h80.148c13.134-0.112 23.75-10.729 23.862-23.851v-80.028c-0.112-13.134-10.729-23.75-23.851-23.862h-79.989c-13.134 0.112-23.75 10.729-23.862 23.851v0.011zM800.094 832.179h-96.164v96.005c-0.156 17.508-14.308 31.66-31.801 31.816h-64.124c-17.508-0.156-31.66-14.308-31.816-31.801v-96.179h-256.199v96.164c-0.156 17.508-14.308 31.66-31.801 31.816h-64.204c-17.508-0.156-31.66-14.308-31.816-31.801v-96.179h-96.164c-53.022 0-96.005-42.983-96.005-96.005v0-96.005h895.98v96.005c0 53.022-42.983 96.005-96.005 96.005v0z" />
<glyph unicode="&#xe918;" glyph-name="location" horiz-adv-x="768" d="M344.52-43.341c-290.761 421.281-344.52 464.519-344.52 619.346 0 212.075 171.921 383.995 383.995 383.995s383.995-171.921 383.995-383.995v0c0-154.827-53.759-198.065-344.52-619.346-8.791-12.539-23.178-20.635-39.456-20.635s-30.665 8.096-39.353 20.481l-0.102 0.154zM383.995 415.994c88.372 0 160.011 71.639 160.011 160.011s-71.639 160.011-160.011 160.011c-88.372 0-160.011-71.639-160.011-160.011v0c0-88.372 71.639-160.011 160.011-160.011v0z" />
<glyph unicode="&#xe919;" glyph-name="double-arrow" horiz-adv-x="1311" d="M0 673.251v40.955c0 33.91 27.489 61.399 61.399 61.399v0h921.515v122.864c0.057 33.903 27.554 61.365 61.465 61.365 16.932 0 32.265-6.846 43.381-17.922l204.772-204.772c11.113-11.121 17.985-26.48 17.985-43.445s-6.873-32.324-17.986-43.445v0l-204.774-204.708c-11.115-11.074-26.447-17.92-43.379-17.92-33.911 0-61.408 27.462-61.465 61.359v122.804h-921.515c-33.91 0-61.399 27.489-61.399 61.399 0 0.023 0 0.046 0 0.069v-0.004zM1249.087 284.148h-921.449v122.864c-0.057 33.903-27.554 61.365-61.465 61.365-16.932 0-32.265-6.846-43.381-17.922l-204.772-204.772c-11.113-11.121-17.985-26.48-17.985-43.445s6.873-32.324 17.986-43.445v0l204.774-204.708c11.115-11.074 26.448-17.92 43.38-17.92 33.888 0 61.371 27.424 61.465 61.29v122.873h921.449c0.019 0 0.043 0 0.066 0 33.91 0 61.399 27.489 61.399 61.399 0 0.023 0 0.046 0 0.069v-0.004 40.955c0 33.91-27.489 61.399-61.399 61.399-0.023 0-0.046 0-0.069 0h0.004z" />
<glyph unicode="&#xe91a;" glyph-name="interactive-map" horiz-adv-x="1327" d="M1327.132 120.438v820.557c-0.032 10.569-8.607 19.124-19.179 19.124-2.56 0-5.003-0.502-7.236-1.412l0.128 0.046-409.68-151.416-413.845 146.079c-12.435 4.238-26.76 6.685-41.656 6.685-14.699 0-28.841-2.382-42.063-6.781l0.94 0.271-359.424-124.954c-20.784-8.709-35.118-28.885-35.118-52.409 0-0.111 0-0.222 0.001-0.333v0.017-820.557c0-0.031 0-0.067 0-0.103 0-10.565 8.565-19.13 19.13-19.13 2.589 0 5.058 0.514 7.31 1.446l409.578 151.369 413.82-146.079c12.441-4.253 26.775-6.709 41.681-6.709 14.682 0 28.807 2.382 42.010 6.78l-0.938-0.271 359.449 125.079c20.767 8.685 35.093 28.835 35.093 52.332 0 0.129 0 0.259-0.001 0.388v-0.020zM416.938 854.375v-691.138l-13.867-5.013-326.776-120.789v724.634l12.47 4.365 328.173 114.155zM833.9 733.387v-703.783l-340.643 120.14v717.027l340.643-120.265zM1250.913 832.078v-697.872l-12.47-4.365-328.173-114.155v717.127l13.643 5.138 326.976 120.864z" />
<glyph unicode="&#xe91b;" glyph-name="loupe" d="M987.611 153.057l-168.539 168.539c30.643 61.287 51.072 132.788 51.072 204.289 0 240.040-194.075 434.115-434.115 434.115s-434.115-194.075-434.115-434.115 194.075-434.115 434.115-434.115c71.501 0 143.002 20.429 204.289 51.072l168.539-168.539c51.072-51.072 127.681-51.072 178.753 0 45.965 51.072 45.965 127.681 0 178.753zM436.030 193.915c-183.86 0-331.97 148.11-331.97 331.97s148.11 331.97 331.97 331.97 331.97-148.11 331.97-331.97-148.11-331.97-331.97-331.97z" />
<glyph unicode="&#xe91c;" glyph-name="downlaod-subscription" d="M972.8 277.333h-187.733v228.437l115.337 115.337c13.329-13.325 34.935-13.325 48.265 0l24.132 24.132c13.325 13.329 13.325 34.935 0 48.265l36.198 36.215c9.604 9.602 14.999 22.626 14.999 36.207s-5.395 26.605-14.999 36.207l-120.661 120.661c-20.258 19.355-52.156 19.355-72.414 0l-30.857-30.839v16.845c0 28.277-22.923 51.2-51.2 51.2h-682.667c-28.277 0-51.2-22.923-51.2-51.2v-921.6c0-28.277 22.923-51.2 51.2-51.2h682.667c28.277 0 51.2 22.923 51.2 51.2v51.2h85.333c84.792 0.094 153.506 68.808 153.6 153.6v34.133c0 28.277-22.923 51.2-51.2 51.2zM750.933 277.333h-358.4c-28.277 0-51.2-22.923-51.2-51.2v-34.133c0-65.98-53.487-119.467-119.467-119.467s-119.467 53.487-119.467 119.467v631.467h598.443c1.615-3.429 3.796-6.562 6.451-9.267l-222.157-222.191c-6.977-6.954-11.79-15.781-13.858-25.412l-38.656-179.456c-0.494-2.437-0.729-4.92-0.7-7.407h-107.657c-9.426 0-17.067-7.641-17.067-17.067s7.641-17.067 17.067-17.067h141.978c2.353 0.010 4.698 0.267 6.997 0.768l179.541 38.673c9.631 2.059 18.458 6.867 25.412 13.841l72.738 72.755zM465.92 379.853l12.39 57.498c8.299-6.713 16.24-13.856 23.791-21.402 7.532-7.524 14.659-15.442 21.35-23.723zM560.282 400.128c-20.572 28.474-45.573 53.469-74.052 74.035l16.247 75.366c19.661-9.387 50.21-29.235 55.125-63.59 1.075-7.503 6.97-13.397 14.473-14.473 29.092-6.611 52.977-27.283 63.693-55.125zM582.298 520.277c-13.765 25.772-35.556 46.353-62.071 58.624l211.2 211.149 60.365-60.331zM665.037 434.057c-12.267 26.517-32.841 48.314-58.607 62.089l209.493 209.442 60.348-60.348zM924.45 645.239l-193.024 193.092 24.149 24.132 193.092-193.092zM840.055 898.662c6.753 6.445 17.379 6.445 24.132 0l120.678-120.678c6.663-6.665 6.663-17.468 0-24.132l-36.198-36.198-144.828 144.811zM153.6 925.867h580.267c9.426 0 17.067-7.641 17.067-17.067v-12.646c-7.373-0.949-14.225-4.31-19.49-9.557l-24.149-24.132c-1.48-1.494-2.817-3.122-3.994-4.864h-600.9v51.2c0 9.426 7.641 17.067 17.067 17.067zM34.133 908.8c0 9.426 7.641 17.067 17.067 17.067h20.207c-2.021-5.466-3.084-11.239-3.14-17.067v-51.2h-34.133zM750.933-12.8c0-9.426-7.641-17.067-17.067-17.067h-682.667c-9.426 0-17.067 7.641-17.067 17.067v836.267h34.133v-631.467c0.094-84.792 68.808-153.506 153.6-153.6h529.067zM989.867 192c-0.075-65.948-53.518-119.391-119.467-119.467h-552.090c36.145 29.125 57.159 73.048 57.156 119.467v34.133c0 9.426 7.641 17.067 17.067 17.067h580.267c9.426 0 17.067-7.641 17.067-17.067zM938.667 209.067h-34.133c-9.426 0-17.067-7.641-17.067-17.067s7.641-17.067 17.067-17.067h34.133c9.426 0 17.067 7.641 17.067 17.067s-7.641 17.067-17.067 17.067zM836.267 209.067h-307.2c-9.426 0-17.067-7.641-17.067-17.067s7.641-17.067 17.067-17.067h307.2c9.426 0 17.067 7.641 17.067 17.067s-7.641 17.067-17.067 17.067zM460.8 209.067h-34.133c-9.426 0-17.067-7.641-17.067-17.067s7.641-17.067 17.067-17.067h34.133c9.426 0 17.067 7.641 17.067 17.067s-7.641 17.067-17.067 17.067zM256 379.733h-34.133c-9.426 0-17.067-7.641-17.067-17.067s7.641-17.067 17.067-17.067h34.133c9.426 0 17.067 7.641 17.067 17.067s-7.641 17.067-17.067 17.067z" />
<glyph unicode="&#xe91d;" glyph-name="graduation-cap" horiz-adv-x="1707" d="M1659.581 722.133l-743.847 228.572c-18.664 5.927-40.129 9.342-62.393 9.342s-43.729-3.415-63.902-9.751l1.509 0.409-743.847-228.572c-27.534-6.976-47.582-31.537-47.582-60.779s20.048-53.803 47.149-60.686l0.433-0.093 129.698-39.829c-28.060-33.918-45.739-77.333-47.666-124.807l-0.013-0.412c-26.223-14.115-43.746-41.369-43.746-72.715 0-28.569 14.556-53.739 36.656-68.497l0.3-0.188-68.148-306.208c-0.645-2.779-1.014-5.97-1.014-9.247 0-23.55 19.078-42.645 42.623-42.671h149.591c0.001 0 0.002 0 0.003 0 23.566 0 42.671 19.104 42.671 42.671 0 3.277-0.369 6.468-1.069 9.533l0.055-0.286-68.003 306.352c22.496 14.836 37.137 39.994 37.137 68.571 0 30.556-16.739 57.202-41.547 71.27l-0.406 0.212c2.12 40.76 23.337 76.153 54.807 97.632l0.434 0.279 521.536-160.232c18.664-5.92 40.13-9.331 62.393-9.331s43.729 3.411 63.903 9.74l-1.511-0.409 743.847 228.524c27.571 6.95 47.656 31.528 47.656 60.797 0 29.287-20.108 53.877-47.272 60.717l-0.432 0.092zM940.778 290.465c-26.162-8.308-56.252-13.096-87.46-13.096s-61.299 4.788-89.576 13.669l2.116-0.573-386.733 118.813-37.806-302.548c0-94.251 229.247-170.683 512-170.683s512 76.383 512 170.683l-37.806 302.596z" />
<glyph unicode="&#xe91e;" glyph-name="calendar-times" horiz-adv-x="896" d="M623.375 210.635l-33.981-33.981c-4.345-4.356-10.353-7.050-16.991-7.050s-12.646 2.695-16.99 7.050v0l-107.416 107.56-107.224-107.416c-4.345-4.356-10.353-7.050-16.991-7.050s-12.646 2.695-16.99 7.050v0l-33.981 33.981c-4.356 4.345-7.050 10.353-7.050 16.991s2.695 12.646 7.050 16.99v0l107.416 107.416-107.608 107.416c-4.356 4.345-7.050 10.353-7.050 16.991s2.695 12.646 7.050 16.99v0l33.981 33.981c4.345 4.356 10.353 7.050 16.991 7.050s12.646-2.695 16.99-7.050v0l107.416-107.416 107.416 107.416c4.345 4.356 10.353 7.050 16.991 7.050s12.646-2.695 16.99-7.050v0l33.981-33.981c4.356-4.345 7.050-10.353 7.050-16.991s-2.695-12.646-7.050-16.99v0l-107.608-107.608 107.416-107.416c4.399-4.352 7.123-10.389 7.123-17.063 0-6.578-2.647-12.538-6.933-16.873l0.002 0.002zM895.994 736.001v-703.961c0-53.015-42.977-95.993-95.993-95.993v0h-704.009c-53.015 0-95.993 42.977-95.993 95.993v0 703.961c0 53.015 42.977 95.993 95.993 95.993v0h95.993v104.008c0 13.254 10.744 23.998 23.998 23.998v0h80.010c13.254 0 23.998-10.744 23.998-23.998v0-104.008h255.964v104.008c0 13.254 10.744 23.998 23.998 23.998v0h80.010c13.254 0 23.998-10.744 23.998-23.998v0-104.008h95.993c0.014 0 0.031 0 0.048 0 53.015 0 95.993-42.977 95.993-95.993 0 0 0 0 0 0v0zM800.002 43.992v596.017h-704.009v-595.969c0.027-6.616 5.383-11.972 11.996-11.999h680.014c6.616 0.027 11.972 5.383 11.999 11.996v0.003z" />
<glyph unicode="&#xe91f;" glyph-name="hourglass" horiz-adv-x="768" d="M735.975 864.007h7.967c13.254 0 23.998 10.744 23.998 23.998v0 47.996c0 13.254-10.744 23.998-23.998 23.998v0h-719.944c-13.254 0-23.998-10.744-23.998-23.998v0-47.996c0-13.254 10.744-23.998 23.998-23.998v0h8.015c0-161.123 64.363-331.606 194.337-415.984-130.358-84.761-194.337-255.964-194.337-415.984h-8.015c-13.254 0-23.998-10.744-23.998-23.998v0-47.996c0-13.254 10.744-23.998 23.998-23.998v0h719.944c13.254 0 23.998 10.744 23.998 23.998v0 47.996c0 13.254-10.744 23.998-23.998 23.998v0h-8.015c0 161.123-64.363 331.606-194.337 415.984 130.598 84.809 194.385 255.772 194.385 415.984zM128.006 864.007h511.976c0-203.216-114.615-367.987-256.012-367.987s-255.964 164.723-255.964 367.987zM639.982 32.040h-511.976c0 203.216 114.615 367.987 256.012 367.987s255.964-164.771 255.964-367.987z" />
</font>
</defs>
</svg>
